<svg width="512" height="512" viewBox="0 0 512 512" xmlns="http://www.w3.org/2000/svg">
  <defs>
    <filter id="filter-wheat" x="-50%" y="-50%" width="200%" height="200%">
      <feGaussianBlur in="SourceAlpha" stdDeviation="5" result="blur"/>
      <feFlood flood-color="#fae2c8" result="flood"/> <feComposite in="flood" in2="blur" operator="in" result="bloom"/>
      <feMerge>
        <feMergeNode in="bloom"/>
        <feMergeNode in="SourceGraphic"/>
      </feMerge>
    </filter>

     <filter id="filter-gold" x="-50%" y="-50%" width="200%" height="200%">
      <feGaussianBlur in="SourceAlpha" stdDeviation="5" result="blur"/>
      <feFlood flood-color="#ffb86c" result="flood"/> <feComposite in="flood" in2="blur" operator="in" result="bloom"/>
      <feMerge>
        <feMergeNode in="bloom"/>
        <feMergeNode in="SourceGraphic"/>
      </feMerge>
    </filter>

    <filter id="filter-amber" x="-50%" y="-50%" width="200%" height="200%">
      <feGaussianBlur in="SourceAlpha" stdDeviation="4" result="blur"/>
      <feFlood flood-color="#ff9e3b" result="flood"/> <feComposite in="flood" in2="blur" operator="in" result="bloom"/>
      <feMerge>
        <feMergeNode in="bloom"/>
        <feMergeNode in="SourceGraphic"/>
      </feMerge>
    </filter>
    
    <filter id="filter-clay" x="-50%" y="-50%" width="200%" height="200%">
      <feGaussianBlur in="SourceAlpha" stdDeviation="3" result="blur"/>
      <feFlood flood-color="#f08d49" result="flood"/> <feComposite in="flood" in2="blur" operator="in" result="bloom"/>
      <feMerge>
        <feMergeNode in="bloom"/>
        <feMergeNode in="SourceGraphic"/>
      </feMerge>
    </filter>

    <linearGradient id="glass-gradient" x1="0%" y1="0%" x2="100%" y2="0%">
      <stop offset="0%" stop-color="#2d2d2d" stop-opacity="0.1"/>
      <stop offset="20%" stop-color="#636363" stop-opacity="0.2"/>
      <stop offset="50%" stop-color="#000000" stop-opacity="0"/>
      <stop offset="80%" stop-color="#636363" stop-opacity="0.2"/>
      <stop offset="100%" stop-color="#2d2d2d" stop-opacity="0.1"/>
    </linearGradient>
  </defs>

  <rect width="512" height="512" fill="#000000" />

  <g transform="translate(106, 76)">
    <!-- Main Bulb -->
    <path d="M 40 15 
             C 40 15 40 -10 150 -10 
             C 260 -10 260 15 260 15 
             L 280 200 
             C 280 250 250 290 200 300 
             L 200 310 
             C 200 320 190 325 180 325 
             L 120 325 
             C 110 325 100 320 100 310 
             L 100 300 
             C 50 290 20 250 20 200 
             Z" 
          fill="url(#glass-gradient)" 
          stroke="#636363" 
          stroke-width="2" />
    
    <!-- Highlights -->
    <path d="M 50 15 C 50 25 50 30 100 30" stroke="#aee6d6" stroke-width="2" fill="none" opacity="0.6" stroke-linecap="round"/>
    <path d="M 250 15 C 250 25 250 30 130 30" stroke="#9cd9e6" stroke-width="2" fill="none" opacity="0.6" stroke-linecap="round"/>
    <path d="M 270 200 C 270 240 250 280 200 290" stroke="#eba4be" stroke-width="2" fill="none" opacity="0.4" stroke-linecap="round"/>

    <!-- Tube Base/Pins -->
    <rect x="110" y="325" width="80" height="20" rx="5" fill="#141414" stroke="#636363" stroke-width="2"/>
    <rect x="120" y="345" width="10" height="15" fill="#2d2d2d" stroke="#636363" stroke-width="1"/>
    <rect x="145" y="345" width="10" height="15" fill="#2d2d2d" stroke="#636363" stroke-width="1"/>
    <rect x="170" y="345" width="10" height="15" fill="#2d2d2d" stroke="#636363" stroke-width="1"/>
  </g>

  <g transform="translate(136, 150)">

    <!-- Cathode Structure (Supports) -->
    <g filter="url(#filter-clay)" opacity="0.6">
        <path d="M 100 180 L 100 250" stroke="#f08d49" stroke-width="3" />
        <path d="M 140 180 L 140 250" stroke="#f08d49" stroke-width="3" />
    </g>
      
    <!-- Cat Face (Filament) -->
    <g filter="url(#filter-gold)">
        <path d="M 40 80 L 20 20 L 80 40 L 160 40 L 220 20 L 200 80 L 220 140 L 180 180 L 60 180 L 20 140 L 40 80 Z" 
              fill="none" stroke="#ffb86c" stroke-width="5" stroke-linecap="round" stroke-linejoin="round"/>
    </g>

    <!-- Eyes (Filament) -->
    <g filter="url(#filter-wheat)">
        <path d="M 60 110 L 80 120 L 100 110" fill="none" stroke="#fae2c8" stroke-width="5" stroke-linecap="round" stroke-linejoin="round" />
        <path d="M 140 110 L 160 120 L 180 110" fill="none" stroke="#fae2c8" stroke-width="5" stroke-linecap="round" stroke-linejoin="round" />
    </g>

    <!-- Whiskers (Filament) -->
    <g filter="url(#filter-amber)">
        <path d="M 110 145 L 130 145 L 120 160 Z" fill="none" stroke="#ff9e3b" stroke-width="4" stroke-linejoin="round" />
        <line x1="10" y1="130" x2="40" y2="135" stroke="#ff9e3b" stroke-width="3" stroke-linecap="round"/>
        <line x1="10" y1="150" x2="40" y2="150" stroke="#ff9e3b" stroke-width="3" stroke-linecap="round"/>
        <line x1="230" y1="130" x2="200" y2="135" stroke="#ff9e3b" stroke-width="3" stroke-linecap="round"/>
        <line x1="230" y1="150" x2="200" y2="150" stroke="#ff9e3b" stroke-width="3" stroke-linecap="round"/>
    </g>

    <!-- Anode Ring (Plate above) -->
    <g filter="url(#filter-clay)" opacity="0.8">
        <ellipse cx="120" cy="0" rx="90" ry="15" fill="none" stroke="#f08d49" stroke-width="2"/>
    </g>
  </g>

</svg>